<svg width="577" height="577" viewBox="0 0 577 577" fill="none" xmlns="http://www.w3.org/2000/svg">
<path fill-rule="evenodd" clip-rule="evenodd" d="M458.474 288.74C461.604 289.182 464.617 290.237 467.338 291.845C470.06 293.453 472.438 295.582 474.336 298.11C476.234 300.637 477.615 303.515 478.4 306.577C479.185 309.639 479.358 312.826 478.91 315.955C472.884 357.644 453.345 396.204 423.292 425.718C393.239 455.233 354.332 474.071 312.541 479.342V504.875C312.541 511.251 310.008 517.366 305.5 521.875C300.991 526.383 294.876 528.916 288.5 528.916C282.124 528.916 276.008 526.383 271.5 521.875C266.991 517.366 264.458 511.251 264.458 504.875V479.342C222.673 474.062 183.774 455.221 153.726 425.707C123.679 396.194 104.143 357.639 98.1138 315.955C97.2084 309.643 98.8477 303.229 102.671 298.125C106.494 293.021 112.189 289.646 118.501 288.74C124.814 287.835 131.227 289.474 136.331 293.297C141.435 297.121 144.811 302.815 145.716 309.127C150.725 343.421 167.908 374.766 194.126 397.433C220.343 420.1 253.842 432.573 288.5 432.573C323.157 432.573 356.657 420.1 382.874 397.433C409.091 374.766 426.275 343.421 431.283 309.127C431.731 306.002 432.79 302.995 434.401 300.278C436.011 297.562 438.14 295.189 440.668 293.296C443.195 291.403 446.07 290.026 449.13 289.245C452.189 288.463 455.349 288.291 458.474 288.74ZM288.5 48.083C320.381 48.083 350.956 60.7478 373.5 83.2912C396.043 105.835 408.708 136.41 408.708 168.291V288.5C408.708 320.381 396.043 350.956 373.5 373.5C350.956 396.043 320.381 408.708 288.5 408.708C256.619 408.708 226.043 396.043 203.5 373.5C180.956 350.956 168.291 320.381 168.291 288.5V168.291C168.291 136.41 180.956 105.835 203.5 83.2912C226.043 60.7478 256.619 48.083 288.5 48.083ZM288.5 96.1663C269.371 96.1663 251.026 103.765 237.5 117.291C223.974 130.817 216.375 149.163 216.375 168.291V288.5C216.375 307.628 223.974 325.974 237.5 339.5C251.026 353.026 269.371 360.625 288.5 360.625C307.629 360.625 325.974 353.026 339.5 339.5C353.026 325.974 360.625 307.628 360.625 288.5V168.291C360.625 149.163 353.026 130.817 339.5 117.291C325.974 103.765 307.629 96.1663 288.5 96.1663Z" fill="white"/>
</svg>
